<svg width="608" height="632" viewBox="0 0 608 632" fill="none" xmlns="http://www.w3.org/2000/svg">
<path d="M339.8 496.739H270.5V181.289H339.8V310.439C372.65 295.589 425.3 280.739 510.8 272.189C512.6 272.189 514.4 272.189 516.2 271.739V181.289H585.5V496.739H516.2V303.239C514.4 303.689 512.6 303.689 510.8 303.689C413.6 314.039 364.55 332.489 339.8 346.439V496.739Z" fill="#313F40"/>
<path d="M268.2 496.289H337.5V181.289H268.2V346.889C265.05 338.789 261.45 330.239 257.4 322.139C225.9 248.339 172.35 191.639 88.65 181.289H22.5V280.739H91.8V213.689C94.5 214.139 97.2 214.139 99.9 214.589C141.3 222.239 173.7 248.339 198 282.089C183.15 341.939 145.8 413.939 91.8 446.339V406.289H22.5V496.289H35.1C38.7 495.839 42.75 495.389 46.35 494.939C139.95 481.889 189.45 399.089 220.05 317.639C246.6 370.289 265.95 430.589 268.2 489.989V496.289Z" fill="#313F40"/>
<path d="M299.553 123.365L305.21 116.092C305.43 115.809 305.879 115.899 305.973 116.245L309.233 128.196L311.963 136.388C312.46 137.878 312.559 139.471 312.251 141.011C311.241 146.062 306.137 149.224 301.14 147.975C296.082 146.71 293.016 141.471 294.487 136.469L296.709 128.915C297.301 126.903 298.266 125.02 299.553 123.365Z" fill="#3E8A35" stroke="#3E8A35"/>
<path d="M245.717 88.1433L251.404 94.6918C261.29 106.076 276.484 111.344 291.296 108.523C291.512 108.482 291.6 108.219 291.452 108.056L283.376 99.172C273.59 88.4073 266.159 75.7183 261.558 61.9169C276.061 71.0764 288.069 83.6859 296.509 98.6186L298.381 101.931C298.525 102.185 298.903 102.14 298.983 101.86C303.24 86.9618 300.239 70.9291 290.883 58.5787L289.052 56.1618C281.065 45.6199 269.567 38.2871 256.64 35.4922L234.263 30.6539C233.935 30.5828 233.616 30.8096 233.576 31.1432L232.068 43.5837C230.115 59.6985 235.073 75.8871 245.717 88.1433Z" fill="#3E8A35" stroke="#3E8A35"/>
<path d="M312.721 101.165V105.924C312.721 106.38 313.29 106.588 313.584 106.239L317.508 101.567C330.334 86.2983 347.218 74.9709 366.209 68.8936L344.116 94.475L320.599 115.753C320.241 116.077 320.422 116.672 320.901 116.74L325.2 117.354C337.582 119.123 350.212 117.526 361.764 112.731C388.283 101.723 405.333 75.5739 404.709 46.8679L404.593 41.5019C404.586 41.2171 404.351 40.991 404.066 40.9964L371.156 41.6173C353.305 41.9541 336.546 50.2817 325.497 64.3061C317.221 74.8099 312.721 87.793 312.721 101.165Z" fill="#3E8A35" stroke="#3E8A35"/>
<path d="M314.09 47.6366L315.803 50.7204C315.936 50.959 316.295 50.8946 316.337 50.6248L316.398 50.2287C317.805 41.0772 321.196 32.3438 326.332 24.6396L327.837 22.382L326.695 52.0679C326.687 52.2908 326.938 52.4262 327.12 52.2966L332.032 48.7878C338.931 43.8598 343.2 36.0496 343.624 27.5819C343.942 21.2096 342.057 14.922 338.283 9.77696L331.599 0.662317C331.455 0.466009 331.17 0.44421 330.998 0.616345L318.994 12.6206C313.488 18.1262 310.395 25.5934 310.395 33.3794C310.395 38.3685 311.667 43.2753 314.09 47.6366Z" fill="#3E8A35" stroke="#3E8A35"/>
</svg>
